<mxfile host="app.diagrams.net" modified="2021-09-30T16:50:47.146Z" agent="5.0 (Windows NT 10.0; Win64; x64) AppleWebKit/537.36 (KHTML, like Gecko) Chrome/93.0.4577.82 Safari/537.36 OPR/79.0.4143.50" etag="Kz6Zk5YZhrIHHoDyj9U6" version="15.3.5" type="github" pages="2">
  <diagram id="C5RBs43oDa-KdzZeNtuy" name="Page-1">
    <mxGraphModel dx="1543" dy="866" grid="1" gridSize="10" guides="1" tooltips="1" connect="1" arrows="1" fold="1" page="1" pageScale="1" pageWidth="827" pageHeight="1169" math="0" shadow="0">
      <root>
        <mxCell id="WIyWlLk6GJQsqaUBKTNV-0" />
        <mxCell id="WIyWlLk6GJQsqaUBKTNV-1" parent="WIyWlLk6GJQsqaUBKTNV-0" />
        <mxCell id="OYclKMu_95USPac68Z9W-0" value="&lt;font style=&quot;font-size: 14px&quot; color=&quot;#fcfcfc&quot; face=&quot;Poppins&quot; data-font-src=&quot;https://fonts.googleapis.com/css?family=Poppins&quot;&gt;&lt;b&gt;START&lt;/b&gt;&lt;/font&gt;" style="rounded=1;whiteSpace=wrap;html=1;hachureGap=4;pointerEvents=0;fillColor=#4EC2CF;strokeColor=none;shadow=0;glass=0;sketch=0;gradientDirection=north;gradientColor=#89E3D2;" vertex="1" parent="WIyWlLk6GJQsqaUBKTNV-1">
          <mxGeometry x="347" y="100" width="143.5" height="30" as="geometry" />
        </mxCell>
        <mxCell id="5vHS8GP_uj2Ly462BwhH-0" value="" style="endArrow=blockThin;html=1;startSize=14;endSize=14;sourcePerimeterSpacing=8;targetPerimeterSpacing=8;strokeColor=#B3B3B3;rounded=1;strokeWidth=1;endFill=1;opacity=60;" edge="1" parent="WIyWlLk6GJQsqaUBKTNV-1">
          <mxGeometry width="50" height="50" relative="1" as="geometry">
            <mxPoint x="418.4099999999999" y="130" as="sourcePoint" />
            <mxPoint x="418.4099999999999" y="170" as="targetPoint" />
          </mxGeometry>
        </mxCell>
        <mxCell id="G0NYwOw1oyBNTWF5aXl_-0" value="&lt;font face=&quot;Poppins&quot; style=&quot;font-size: 9px&quot;&gt;&amp;nbsp;MdLinks&lt;br&gt;&lt;br&gt;&lt;/font&gt;" style="shape=parallelogram;perimeter=parallelogramPerimeter;whiteSpace=wrap;html=1;fixedSize=1;shadow=0;glass=1;sketch=0;hachureGap=4;pointerEvents=0;fillColor=#CCFFE6;strokeColor=none;rounded=1;arcSize=22;align=center;gradientColor=#ffffff;" vertex="1" parent="WIyWlLk6GJQsqaUBKTNV-1">
          <mxGeometry x="356.88" y="170" width="123.75" height="50" as="geometry" />
        </mxCell>
        <mxCell id="-IG1O3hMklvKj96a-HAn-0" value="&lt;font face=&quot;Poppins&quot; data-font-src=&quot;https://fonts.googleapis.com/css?family=Poppins&quot; style=&quot;font-size: 10px&quot;&gt;&lt;font&gt;¿Tiene&lt;br&gt;&lt;/font&gt;&lt;font&gt;options?&lt;/font&gt;&lt;/font&gt;" style="rhombus;whiteSpace=wrap;html=1;rounded=1;shadow=0;glass=0;sketch=0;hachureGap=4;pointerEvents=0;strokeColor=none;fillColor=default;gradientDirection=north;arcSize=8;gradientColor=#FFF2CC;" vertex="1" parent="WIyWlLk6GJQsqaUBKTNV-1">
          <mxGeometry x="375" y="260" width="87.5" height="70" as="geometry" />
        </mxCell>
        <mxCell id="-IG1O3hMklvKj96a-HAn-2" value="" style="endArrow=blockThin;html=1;startSize=14;endSize=14;sourcePerimeterSpacing=8;targetPerimeterSpacing=8;strokeColor=#B3B3B3;rounded=1;strokeWidth=1;endFill=1;opacity=60;" edge="1" parent="WIyWlLk6GJQsqaUBKTNV-1">
          <mxGeometry width="50" height="50" relative="1" as="geometry">
            <mxPoint x="418.54999999999995" y="220" as="sourcePoint" />
            <mxPoint x="418.54999999999995" y="260" as="targetPoint" />
          </mxGeometry>
        </mxCell>
        <mxCell id="-IG1O3hMklvKj96a-HAn-3" value="&lt;font style=&quot;font-size: 9px&quot;&gt;no&lt;/font&gt;" style="endArrow=blockThin;html=1;startSize=14;endSize=14;sourcePerimeterSpacing=8;targetPerimeterSpacing=8;strokeColor=#B3B3B3;rounded=1;strokeWidth=1;endFill=1;opacity=60;fontFamily=Poppins;fontSource=https%3A%2F%2Ffonts.googleapis.com%2Fcss%3Ffamily%3DPoppins;verticalAlign=middle;labelPosition=center;verticalLabelPosition=middle;align=center;" edge="1" parent="WIyWlLk6GJQsqaUBKTNV-1">
          <mxGeometry x="-0.1657" width="50" height="50" relative="1" as="geometry">
            <mxPoint x="462.49999999999955" y="294.8" as="sourcePoint" />
            <mxPoint x="670" y="295" as="targetPoint" />
            <mxPoint as="offset" />
            <Array as="points" />
          </mxGeometry>
        </mxCell>
        <mxCell id="-IG1O3hMklvKj96a-HAn-4" value="&lt;span style=&quot;font-size: 10px&quot;&gt;Mostrar href, text, file&lt;br&gt;&lt;/span&gt;" style="rounded=1;whiteSpace=wrap;html=1;shadow=0;glass=0;sketch=0;hachureGap=4;pointerEvents=0;fontFamily=Poppins;fontSource=https%3A%2F%2Ffonts.googleapis.com%2Fcss%3Ffamily%3DPoppins;strokeColor=none;fillColor=#FFFFFF;gradientDirection=north;gradientColor=#99CCFF;" vertex="1" parent="WIyWlLk6GJQsqaUBKTNV-1">
          <mxGeometry x="670" y="275" width="120" height="40" as="geometry" />
        </mxCell>
        <mxCell id="DyFku1vf3bDfi78aZa8K-0" value="" style="endArrow=blockThin;html=1;fontFamily=Poppins;fontSource=https%3A%2F%2Ffonts.googleapis.com%2Fcss%3Ffamily%3DPoppins;startSize=10;endSize=14;sourcePerimeterSpacing=7;targetPerimeterSpacing=7;strokeColor=#B3B3B3;strokeWidth=1;align=right;verticalAlign=middle;opacity=60;endFill=1;entryX=0.5;entryY=0;entryDx=0;entryDy=0;" edge="1" parent="WIyWlLk6GJQsqaUBKTNV-1" target="DyFku1vf3bDfi78aZa8K-17">
          <mxGeometry width="50" height="50" relative="1" as="geometry">
            <mxPoint x="429.38" y="390" as="sourcePoint" />
            <mxPoint x="492.38" y="430" as="targetPoint" />
            <Array as="points">
              <mxPoint x="500" y="390" />
            </Array>
          </mxGeometry>
        </mxCell>
        <mxCell id="DyFku1vf3bDfi78aZa8K-1" value="" style="endArrow=blockThin;html=1;fontFamily=Poppins;fontSource=https%3A%2F%2Ffonts.googleapis.com%2Fcss%3Ffamily%3DPoppins;startSize=10;endSize=14;sourcePerimeterSpacing=7;targetPerimeterSpacing=7;strokeColor=#B3B3B3;strokeWidth=1;align=right;verticalAlign=middle;opacity=60;endFill=1;entryX=0.508;entryY=0.028;entryDx=0;entryDy=0;entryPerimeter=0;" edge="1" parent="WIyWlLk6GJQsqaUBKTNV-1" target="DyFku1vf3bDfi78aZa8K-15">
          <mxGeometry width="50" height="50" relative="1" as="geometry">
            <mxPoint x="480" y="390" as="sourcePoint" />
            <mxPoint x="631" y="430" as="targetPoint" />
            <Array as="points">
              <mxPoint x="650" y="390" />
            </Array>
          </mxGeometry>
        </mxCell>
        <mxCell id="DyFku1vf3bDfi78aZa8K-2" value="" style="endArrow=blockThin;html=1;fontFamily=Poppins;fontSource=https%3A%2F%2Ffonts.googleapis.com%2Fcss%3Ffamily%3DPoppins;startSize=10;endSize=14;sourcePerimeterSpacing=7;targetPerimeterSpacing=7;strokeColor=#B3B3B3;strokeWidth=1;align=right;verticalAlign=middle;opacity=60;endFill=1;" edge="1" parent="WIyWlLk6GJQsqaUBKTNV-1">
          <mxGeometry width="50" height="50" relative="1" as="geometry">
            <mxPoint x="410" y="390" as="sourcePoint" />
            <mxPoint x="345.13" y="429" as="targetPoint" />
            <Array as="points">
              <mxPoint x="345.13" y="390" />
            </Array>
          </mxGeometry>
        </mxCell>
        <mxCell id="DyFku1vf3bDfi78aZa8K-4" value="" style="endArrow=blockThin;html=1;fontFamily=Poppins;fontSource=https%3A%2F%2Ffonts.googleapis.com%2Fcss%3Ffamily%3DPoppins;startSize=10;endSize=14;sourcePerimeterSpacing=7;targetPerimeterSpacing=7;strokeColor=#B3B3B3;strokeWidth=1;align=right;verticalAlign=middle;opacity=60;endFill=1;entryX=0.5;entryY=0;entryDx=0;entryDy=0;" edge="1" parent="WIyWlLk6GJQsqaUBKTNV-1" target="DyFku1vf3bDfi78aZa8K-19">
          <mxGeometry width="50" height="50" relative="1" as="geometry">
            <mxPoint x="356.88" y="390" as="sourcePoint" />
            <mxPoint x="206.88" y="430" as="targetPoint" />
            <Array as="points">
              <mxPoint x="200" y="390" />
            </Array>
          </mxGeometry>
        </mxCell>
        <mxCell id="DyFku1vf3bDfi78aZa8K-7" value="" style="endArrow=none;html=1;startSize=14;endSize=14;sourcePerimeterSpacing=8;targetPerimeterSpacing=8;strokeColor=#B3B3B3;opacity=60;" edge="1" parent="WIyWlLk6GJQsqaUBKTNV-1">
          <mxGeometry width="50" height="50" relative="1" as="geometry">
            <mxPoint x="409" y="390" as="sourcePoint" />
            <mxPoint x="419" y="370" as="targetPoint" />
            <Array as="points">
              <mxPoint x="419" y="390" />
            </Array>
          </mxGeometry>
        </mxCell>
        <mxCell id="DyFku1vf3bDfi78aZa8K-8" value="" style="endArrow=none;html=1;startSize=14;endSize=14;sourcePerimeterSpacing=8;targetPerimeterSpacing=8;strokeColor=#B3B3B3;opacity=60;" edge="1" parent="WIyWlLk6GJQsqaUBKTNV-1">
          <mxGeometry width="50" height="50" relative="1" as="geometry">
            <mxPoint x="431" y="390" as="sourcePoint" />
            <mxPoint x="420" y="370" as="targetPoint" />
            <Array as="points">
              <mxPoint x="420" y="390" />
            </Array>
          </mxGeometry>
        </mxCell>
        <mxCell id="DyFku1vf3bDfi78aZa8K-10" value="" style="endArrow=none;html=1;startSize=14;endSize=14;sourcePerimeterSpacing=8;targetPerimeterSpacing=8;entryX=0.5;entryY=1;entryDx=0;entryDy=0;strokeColor=#B3B3B3;opacity=60;" edge="1" parent="WIyWlLk6GJQsqaUBKTNV-1" source="DyFku1vf3bDfi78aZa8K-11" target="-IG1O3hMklvKj96a-HAn-0">
          <mxGeometry width="50" height="50" relative="1" as="geometry">
            <mxPoint x="419" y="350" as="sourcePoint" />
            <mxPoint x="450" y="330" as="targetPoint" />
          </mxGeometry>
        </mxCell>
        <mxCell id="DyFku1vf3bDfi78aZa8K-11" value="&lt;font style=&quot;font-size: 9px&quot;&gt;sí&lt;/font&gt;" style="text;html=1;strokeColor=none;fillColor=none;align=center;verticalAlign=middle;whiteSpace=wrap;rounded=0;hachureGap=4;pointerEvents=0;" vertex="1" parent="WIyWlLk6GJQsqaUBKTNV-1">
          <mxGeometry x="408.13" y="360" width="21.25" as="geometry" />
        </mxCell>
        <mxCell id="DyFku1vf3bDfi78aZa8K-15" value="&lt;font face=&quot;Poppins&quot; style=&quot;font-size: 9px&quot;&gt;&amp;nbsp;MdLinks&lt;br&gt;&lt;br&gt;&lt;/font&gt;" style="shape=parallelogram;perimeter=parallelogramPerimeter;whiteSpace=wrap;html=1;fixedSize=1;shadow=0;glass=1;sketch=0;hachureGap=4;pointerEvents=0;fillColor=#CCFFE6;strokeColor=none;rounded=1;arcSize=22;align=center;gradientColor=#ffffff;" vertex="1" parent="WIyWlLk6GJQsqaUBKTNV-1">
          <mxGeometry x="595" y="430" width="110" height="50" as="geometry" />
        </mxCell>
        <mxCell id="DyFku1vf3bDfi78aZa8K-17" value="&lt;font face=&quot;Poppins&quot; style=&quot;font-size: 9px&quot;&gt;&amp;nbsp;MdLinks&lt;br&gt;&lt;br&gt;&lt;/font&gt;" style="shape=parallelogram;perimeter=parallelogramPerimeter;whiteSpace=wrap;html=1;fixedSize=1;shadow=0;glass=1;sketch=0;hachureGap=4;pointerEvents=0;fillColor=#CCFFE6;strokeColor=none;rounded=1;arcSize=22;align=center;gradientColor=#ffffff;" vertex="1" parent="WIyWlLk6GJQsqaUBKTNV-1">
          <mxGeometry x="445" y="430" width="110" height="50" as="geometry" />
        </mxCell>
        <mxCell id="DyFku1vf3bDfi78aZa8K-18" value="&lt;font face=&quot;Poppins&quot; style=&quot;font-size: 9px&quot;&gt;&amp;nbsp;MdLinks&lt;br&gt;&lt;br&gt;&lt;/font&gt;" style="shape=parallelogram;perimeter=parallelogramPerimeter;whiteSpace=wrap;html=1;fixedSize=1;shadow=0;glass=1;sketch=0;hachureGap=4;pointerEvents=0;fillColor=#CCFFE6;strokeColor=none;rounded=1;arcSize=22;align=center;gradientColor=#ffffff;" vertex="1" parent="WIyWlLk6GJQsqaUBKTNV-1">
          <mxGeometry x="290" y="430" width="110" height="50" as="geometry" />
        </mxCell>
        <mxCell id="DyFku1vf3bDfi78aZa8K-19" value="&lt;font face=&quot;Poppins&quot; style=&quot;font-size: 9px&quot;&gt;&amp;nbsp;MdLinks&lt;br&gt;&lt;br&gt;&lt;/font&gt;" style="shape=parallelogram;perimeter=parallelogramPerimeter;whiteSpace=wrap;html=1;fixedSize=1;shadow=0;glass=1;sketch=0;hachureGap=4;pointerEvents=0;fillColor=#CCFFE6;strokeColor=none;rounded=1;arcSize=22;align=center;gradientColor=#ffffff;" vertex="1" parent="WIyWlLk6GJQsqaUBKTNV-1">
          <mxGeometry x="145" y="430" width="110" height="50" as="geometry" />
        </mxCell>
        <mxCell id="DyFku1vf3bDfi78aZa8K-21" value="&lt;span style=&quot;font-size: 10px&quot;&gt;Mostrar href, text, file&lt;br&gt;&lt;/span&gt;" style="rounded=1;whiteSpace=wrap;html=1;shadow=0;glass=0;sketch=0;hachureGap=4;pointerEvents=0;fontFamily=Poppins;fontSource=https%3A%2F%2Ffonts.googleapis.com%2Fcss%3Ffamily%3DPoppins;strokeColor=none;fillColor=#FFFFFF;gradientDirection=north;gradientColor=#99CCFF;" vertex="1" parent="WIyWlLk6GJQsqaUBKTNV-1">
          <mxGeometry x="600" y="520" width="100" height="40" as="geometry" />
        </mxCell>
        <mxCell id="DyFku1vf3bDfi78aZa8K-22" value="&lt;span style=&quot;font-size: 10px&quot;&gt;Mostrar href, text, file&lt;br&gt;&lt;/span&gt;" style="rounded=1;whiteSpace=wrap;html=1;shadow=0;glass=0;sketch=0;hachureGap=4;pointerEvents=0;fontFamily=Poppins;fontSource=https%3A%2F%2Ffonts.googleapis.com%2Fcss%3Ffamily%3DPoppins;strokeColor=none;fillColor=#FFFFFF;gradientDirection=north;gradientColor=#99CCFF;" vertex="1" parent="WIyWlLk6GJQsqaUBKTNV-1">
          <mxGeometry x="450" y="520" width="100" height="40" as="geometry" />
        </mxCell>
        <mxCell id="DyFku1vf3bDfi78aZa8K-23" value="&lt;span style=&quot;font-size: 10px&quot;&gt;Mostrar href, text, file&lt;br&gt;&lt;/span&gt;" style="rounded=1;whiteSpace=wrap;html=1;shadow=0;glass=0;sketch=0;hachureGap=4;pointerEvents=0;fontFamily=Poppins;fontSource=https%3A%2F%2Ffonts.googleapis.com%2Fcss%3Ffamily%3DPoppins;strokeColor=none;fillColor=#FFFFFF;gradientDirection=north;gradientColor=#99CCFF;" vertex="1" parent="WIyWlLk6GJQsqaUBKTNV-1">
          <mxGeometry x="300" y="520" width="100" height="40" as="geometry" />
        </mxCell>
        <mxCell id="DyFku1vf3bDfi78aZa8K-24" value="&lt;span style=&quot;font-size: 10px&quot;&gt;Mostrar href, text, file&lt;br&gt;&lt;/span&gt;" style="rounded=1;whiteSpace=wrap;html=1;shadow=0;glass=0;sketch=0;hachureGap=4;pointerEvents=0;fontFamily=Poppins;fontSource=https%3A%2F%2Ffonts.googleapis.com%2Fcss%3Ffamily%3DPoppins;strokeColor=none;fillColor=#FFFFFF;gradientDirection=north;gradientColor=#99CCFF;" vertex="1" parent="WIyWlLk6GJQsqaUBKTNV-1">
          <mxGeometry x="150" y="520" width="100" height="40" as="geometry" />
        </mxCell>
        <mxCell id="DyFku1vf3bDfi78aZa8K-25" value="" style="endArrow=blockThin;html=1;startSize=14;endSize=14;sourcePerimeterSpacing=8;targetPerimeterSpacing=8;strokeColor=#B3B3B3;rounded=1;strokeWidth=1;endFill=1;opacity=60;" edge="1" parent="WIyWlLk6GJQsqaUBKTNV-1">
          <mxGeometry width="50" height="50" relative="1" as="geometry">
            <mxPoint x="344.79999999999967" y="479.9999999999999" as="sourcePoint" />
            <mxPoint x="344.79999999999967" y="519.9999999999999" as="targetPoint" />
          </mxGeometry>
        </mxCell>
        <mxCell id="DyFku1vf3bDfi78aZa8K-26" value="" style="endArrow=blockThin;html=1;startSize=14;endSize=14;sourcePerimeterSpacing=8;targetPerimeterSpacing=8;strokeColor=#B3B3B3;rounded=1;strokeWidth=1;endFill=1;opacity=60;" edge="1" parent="WIyWlLk6GJQsqaUBKTNV-1">
          <mxGeometry width="50" height="50" relative="1" as="geometry">
            <mxPoint x="199.89999999999986" y="480" as="sourcePoint" />
            <mxPoint x="199.89999999999986" y="520" as="targetPoint" />
          </mxGeometry>
        </mxCell>
        <mxCell id="DyFku1vf3bDfi78aZa8K-29" value="" style="endArrow=blockThin;html=1;startSize=14;endSize=14;sourcePerimeterSpacing=8;targetPerimeterSpacing=8;strokeColor=#B3B3B3;rounded=1;strokeWidth=1;endFill=1;opacity=60;" edge="1" parent="WIyWlLk6GJQsqaUBKTNV-1">
          <mxGeometry width="50" height="50" relative="1" as="geometry">
            <mxPoint x="499.87999999999977" y="479.9999999999999" as="sourcePoint" />
            <mxPoint x="499.87999999999977" y="519.9999999999999" as="targetPoint" />
          </mxGeometry>
        </mxCell>
        <mxCell id="DyFku1vf3bDfi78aZa8K-30" value="" style="endArrow=blockThin;html=1;startSize=14;endSize=14;sourcePerimeterSpacing=8;targetPerimeterSpacing=8;strokeColor=#B3B3B3;rounded=1;strokeWidth=1;endFill=1;opacity=60;" edge="1" parent="WIyWlLk6GJQsqaUBKTNV-1">
          <mxGeometry width="50" height="50" relative="1" as="geometry">
            <mxPoint x="649.8999999999997" y="479.9999999999999" as="sourcePoint" />
            <mxPoint x="649.8999999999997" y="519.9999999999999" as="targetPoint" />
          </mxGeometry>
        </mxCell>
        <mxCell id="DyFku1vf3bDfi78aZa8K-31" value="" style="endArrow=none;html=1;startSize=14;endSize=14;sourcePerimeterSpacing=8;targetPerimeterSpacing=8;strokeColor=#B3B3B3;opacity=60;entryX=0.5;entryY=1;entryDx=0;entryDy=0;" edge="1" parent="WIyWlLk6GJQsqaUBKTNV-1" target="DyFku1vf3bDfi78aZa8K-21">
          <mxGeometry width="50" height="50" relative="1" as="geometry">
            <mxPoint x="420" y="630" as="sourcePoint" />
            <mxPoint x="650" y="570" as="targetPoint" />
            <Array as="points">
              <mxPoint x="420" y="600" />
              <mxPoint x="650" y="600" />
            </Array>
          </mxGeometry>
        </mxCell>
        <mxCell id="DyFku1vf3bDfi78aZa8K-33" value="" style="endArrow=none;html=1;startSize=14;endSize=14;sourcePerimeterSpacing=8;targetPerimeterSpacing=8;strokeColor=#B3B3B3;opacity=60;" edge="1" parent="WIyWlLk6GJQsqaUBKTNV-1">
          <mxGeometry width="50" height="50" relative="1" as="geometry">
            <mxPoint x="400" y="600" as="sourcePoint" />
            <mxPoint x="347.00000000000017" y="560" as="targetPoint" />
            <Array as="points">
              <mxPoint x="347.14" y="600" />
            </Array>
          </mxGeometry>
        </mxCell>
        <mxCell id="DyFku1vf3bDfi78aZa8K-35" value="" style="endArrow=none;html=1;startSize=14;endSize=14;sourcePerimeterSpacing=8;targetPerimeterSpacing=8;strokeColor=#B3B3B3;opacity=60;entryX=0.5;entryY=1;entryDx=0;entryDy=0;" edge="1" parent="WIyWlLk6GJQsqaUBKTNV-1" target="DyFku1vf3bDfi78aZa8K-24">
          <mxGeometry width="50" height="50" relative="1" as="geometry">
            <mxPoint x="420" y="630" as="sourcePoint" />
            <mxPoint x="199.86000000000013" y="590" as="targetPoint" />
            <Array as="points">
              <mxPoint x="420" y="600" />
              <mxPoint x="200" y="600" />
            </Array>
          </mxGeometry>
        </mxCell>
        <mxCell id="DyFku1vf3bDfi78aZa8K-37" value="" style="endArrow=blockThin;html=1;startSize=14;endSize=14;sourcePerimeterSpacing=8;targetPerimeterSpacing=8;strokeColor=#B3B3B3;rounded=1;strokeWidth=1;endFill=1;opacity=60;" edge="1" parent="WIyWlLk6GJQsqaUBKTNV-1">
          <mxGeometry width="50" height="50" relative="1" as="geometry">
            <mxPoint x="420" y="630" as="sourcePoint" />
            <mxPoint x="420" y="650" as="targetPoint" />
          </mxGeometry>
        </mxCell>
        <mxCell id="DyFku1vf3bDfi78aZa8K-38" value="" style="endArrow=none;html=1;startSize=14;endSize=14;sourcePerimeterSpacing=8;targetPerimeterSpacing=8;strokeColor=#B3B3B3;opacity=60;entryX=0.5;entryY=1;entryDx=0;entryDy=0;" edge="1" parent="WIyWlLk6GJQsqaUBKTNV-1">
          <mxGeometry width="50" height="50" relative="1" as="geometry">
            <mxPoint x="440" y="600" as="sourcePoint" />
            <mxPoint x="499.9999999999999" y="560" as="targetPoint" />
            <Array as="points">
              <mxPoint x="500" y="600" />
            </Array>
          </mxGeometry>
        </mxCell>
        <mxCell id="DyFku1vf3bDfi78aZa8K-39" value="&lt;font style=&quot;font-size: 14px&quot; color=&quot;#fcfcfc&quot; face=&quot;Poppins&quot; data-font-src=&quot;https://fonts.googleapis.com/css?family=Poppins&quot;&gt;&lt;b&gt;START&lt;/b&gt;&lt;/font&gt;" style="rounded=1;whiteSpace=wrap;html=1;hachureGap=4;pointerEvents=0;fillColor=#4EC2CF;strokeColor=none;shadow=0;glass=0;sketch=0;gradientDirection=north;gradientColor=#89E3D2;" vertex="1" parent="WIyWlLk6GJQsqaUBKTNV-1">
          <mxGeometry x="356.88" y="650" width="143.5" height="30" as="geometry" />
        </mxCell>
        <mxCell id="DyFku1vf3bDfi78aZa8K-40" value="" style="endArrow=blockThin;html=1;fontFamily=Poppins;fontSource=https%3A%2F%2Ffonts.googleapis.com%2Fcss%3Ffamily%3DPoppins;startSize=10;endSize=14;sourcePerimeterSpacing=7;targetPerimeterSpacing=7;strokeColor=#B3B3B3;strokeWidth=1;align=right;verticalAlign=middle;opacity=60;endFill=1;entryX=1;entryY=0.5;entryDx=0;entryDy=0;exitX=0.5;exitY=1;exitDx=0;exitDy=0;" edge="1" parent="WIyWlLk6GJQsqaUBKTNV-1" source="-IG1O3hMklvKj96a-HAn-4" target="DyFku1vf3bDfi78aZa8K-39">
          <mxGeometry width="50" height="50" relative="1" as="geometry">
            <mxPoint x="730" y="350" as="sourcePoint" />
            <mxPoint x="900.8799999999999" y="391.4000000000001" as="targetPoint" />
            <Array as="points">
              <mxPoint x="730" y="665" />
            </Array>
          </mxGeometry>
        </mxCell>
      </root>
    </mxGraphModel>
  </diagram>
  <diagram id="QHuL4XXukO6EPlNWGHLC" name="Page-2">
    <mxGraphModel dx="431" dy="1411" grid="1" gridSize="10" guides="1" tooltips="1" connect="1" arrows="1" fold="1" page="1" pageScale="1" pageWidth="827" pageHeight="1169" math="0" shadow="0">
      <root>
        <mxCell id="2HKKLLd31zWiuBAIn60T-0" />
        <mxCell id="2HKKLLd31zWiuBAIn60T-1" parent="2HKKLLd31zWiuBAIn60T-0" />
        <mxCell id="2HKKLLd31zWiuBAIn60T-2" value="&lt;font style=&quot;font-size: 14px&quot; color=&quot;#fcfcfc&quot; face=&quot;Poppins&quot; data-font-src=&quot;https://fonts.googleapis.com/css?family=Poppins&quot;&gt;&lt;b&gt;START&lt;/b&gt;&lt;/font&gt;" style="rounded=1;whiteSpace=wrap;html=1;hachureGap=4;pointerEvents=0;fillColor=#4EC2CF;strokeColor=none;shadow=0;glass=0;sketch=0;gradientDirection=north;gradientColor=#89E3D2;" vertex="1" parent="2HKKLLd31zWiuBAIn60T-1">
          <mxGeometry x="344.5" y="-66" width="143.5" height="30" as="geometry" />
        </mxCell>
        <mxCell id="2HKKLLd31zWiuBAIn60T-3" value="&lt;font face=&quot;Poppins&quot; data-font-src=&quot;https://fonts.googleapis.com/css?family=Poppins&quot; style=&quot;font-size: 10px&quot;&gt;ingresar Path&lt;/font&gt;" style="shape=parallelogram;perimeter=parallelogramPerimeter;whiteSpace=wrap;html=1;fixedSize=1;shadow=0;glass=1;sketch=0;hachureGap=4;pointerEvents=0;fillColor=#CCFFE6;strokeColor=none;rounded=1;arcSize=24;gradientColor=#ffffff;" vertex="1" parent="2HKKLLd31zWiuBAIn60T-1">
          <mxGeometry x="355.25" y="110" width="122.5" height="40" as="geometry" />
        </mxCell>
        <mxCell id="2HKKLLd31zWiuBAIn60T-4" value="&lt;font face=&quot;Poppins&quot; data-font-src=&quot;https://fonts.googleapis.com/css?family=Poppins&quot; style=&quot;font-size: 10px&quot;&gt;&lt;font&gt;resolver para que &lt;br&gt;&lt;/font&gt;&lt;font&gt;Path&amp;nbsp;sea absoluta&lt;/font&gt;&lt;/font&gt;" style="shape=parallelogram;perimeter=parallelogramPerimeter;whiteSpace=wrap;html=1;fixedSize=1;shadow=0;glass=1;sketch=0;hachureGap=4;pointerEvents=0;fillColor=#CCFFE6;strokeColor=none;rounded=1;arcSize=22;align=center;gradientColor=#ffffff;" vertex="1" parent="2HKKLLd31zWiuBAIn60T-1">
          <mxGeometry x="351.25" y="190" width="130" height="50" as="geometry" />
        </mxCell>
        <mxCell id="2HKKLLd31zWiuBAIn60T-5" value="" style="endArrow=blockThin;html=1;startSize=14;endSize=14;sourcePerimeterSpacing=8;targetPerimeterSpacing=8;strokeColor=#B3B3B3;rounded=1;strokeWidth=1;endFill=1;opacity=60;" edge="1" parent="2HKKLLd31zWiuBAIn60T-1">
          <mxGeometry width="50" height="50" relative="1" as="geometry">
            <mxPoint x="416.29999999999995" y="70" as="sourcePoint" />
            <mxPoint x="416.29999999999995" y="110" as="targetPoint" />
          </mxGeometry>
        </mxCell>
        <mxCell id="2HKKLLd31zWiuBAIn60T-6" value="&lt;font face=&quot;Poppins&quot; data-font-src=&quot;https://fonts.googleapis.com/css?family=Poppins&quot; style=&quot;font-size: 10px&quot;&gt;&lt;font&gt;¿Existe&lt;br&gt;&lt;/font&gt;&lt;font&gt;&amp;nbsp;Path?&lt;/font&gt;&lt;/font&gt;" style="rhombus;whiteSpace=wrap;html=1;rounded=1;shadow=0;glass=0;sketch=0;hachureGap=4;pointerEvents=0;strokeColor=none;fillColor=default;gradientDirection=north;arcSize=8;gradientColor=#FFF2CC;" vertex="1" parent="2HKKLLd31zWiuBAIn60T-1">
          <mxGeometry x="375" y="280" width="87.5" height="70" as="geometry" />
        </mxCell>
        <mxCell id="2HKKLLd31zWiuBAIn60T-7" value="&lt;font style=&quot;font-size: 9px&quot;&gt;sí&lt;/font&gt;" style="endArrow=blockThin;html=1;startSize=10;endSize=14;sourcePerimeterSpacing=7;targetPerimeterSpacing=7;strokeColor=#B3B3B3;rounded=1;strokeWidth=1;endFill=1;opacity=60;fontFamily=Poppins;fontSource=https%3A%2F%2Ffonts.googleapis.com%2Fcss%3Ffamily%3DPoppins;verticalAlign=middle;labelPosition=center;verticalLabelPosition=middle;align=center;" edge="1" parent="2HKKLLd31zWiuBAIn60T-1">
          <mxGeometry x="-0.2157" width="50" height="50" relative="1" as="geometry">
            <mxPoint x="420.24" y="350" as="sourcePoint" />
            <mxPoint x="420" y="401" as="targetPoint" />
            <mxPoint as="offset" />
          </mxGeometry>
        </mxCell>
        <mxCell id="2HKKLLd31zWiuBAIn60T-8" value="&lt;font face=&quot;Poppins&quot; data-font-src=&quot;https://fonts.googleapis.com/css?family=Poppins&quot; style=&quot;font-size: 10px&quot;&gt;&lt;font&gt;¿Existe&lt;br&gt;&lt;/font&gt;&lt;font&gt;&amp;nbsp;Directorio?&lt;/font&gt;&lt;/font&gt;" style="rhombus;whiteSpace=wrap;html=1;rounded=1;shadow=0;glass=0;sketch=0;hachureGap=4;pointerEvents=0;strokeColor=none;fillColor=default;gradientDirection=north;arcSize=8;gradientColor=#FFF2CC;" vertex="1" parent="2HKKLLd31zWiuBAIn60T-1">
          <mxGeometry x="373.75" y="400" width="90" height="70" as="geometry" />
        </mxCell>
        <mxCell id="2HKKLLd31zWiuBAIn60T-9" value="&lt;font style=&quot;font-size: 9px&quot;&gt;sí&lt;/font&gt;" style="endArrow=blockThin;html=1;startSize=14;endSize=14;sourcePerimeterSpacing=8;targetPerimeterSpacing=8;strokeColor=#B3B3B3;rounded=1;strokeWidth=1;endFill=1;opacity=60;fontFamily=Poppins;fontSource=https%3A%2F%2Ffonts.googleapis.com%2Fcss%3Ffamily%3DPoppins;verticalAlign=middle;entryX=1;entryY=0.5;entryDx=0;entryDy=0;exitX=0.021;exitY=0.518;exitDx=0;exitDy=0;exitPerimeter=0;" edge="1" parent="2HKKLLd31zWiuBAIn60T-1" source="2HKKLLd31zWiuBAIn60T-8" target="2HKKLLd31zWiuBAIn60T-10">
          <mxGeometry x="-0.2" width="50" height="50" relative="1" as="geometry">
            <mxPoint x="380.24" y="440" as="sourcePoint" />
            <mxPoint x="380.0000000000002" y="490" as="targetPoint" />
            <mxPoint as="offset" />
          </mxGeometry>
        </mxCell>
        <mxCell id="2HKKLLd31zWiuBAIn60T-10" value="&lt;font style=&quot;font-size: 10px&quot; face=&quot;Poppins&quot; data-font-src=&quot;https://fonts.googleapis.com/css?family=Poppins&quot;&gt;Abrir directorio &lt;br&gt;y mostrar&lt;br&gt;&amp;nbsp;archivos&lt;/font&gt;" style="shape=parallelogram;perimeter=parallelogramPerimeter;whiteSpace=wrap;html=1;fixedSize=1;shadow=0;glass=1;sketch=0;hachureGap=4;pointerEvents=0;fillColor=#CCFFE6;strokeColor=none;rounded=1;arcSize=21;align=center;gradientColor=#ffffff;" vertex="1" parent="2HKKLLd31zWiuBAIn60T-1">
          <mxGeometry x="190.5" y="405" width="129.5" height="60" as="geometry" />
        </mxCell>
        <mxCell id="2HKKLLd31zWiuBAIn60T-11" value="" style="endArrow=block;html=1;startSize=14;endSize=14;sourcePerimeterSpacing=8;targetPerimeterSpacing=8;strokeColor=#B3B3B3;rounded=1;strokeWidth=1;endFill=1;opacity=60;exitX=0.5;exitY=1;exitDx=0;exitDy=0;entryX=0.5;entryY=0;entryDx=0;entryDy=0;" edge="1" parent="2HKKLLd31zWiuBAIn60T-1" source="2HKKLLd31zWiuBAIn60T-10" target="2HKKLLd31zWiuBAIn60T-12">
          <mxGeometry width="50" height="50" relative="1" as="geometry">
            <mxPoint x="350" y="550" as="sourcePoint" />
            <mxPoint x="320" y="549.58" as="targetPoint" />
          </mxGeometry>
        </mxCell>
        <mxCell id="2HKKLLd31zWiuBAIn60T-12" value="&lt;font face=&quot;Poppins&quot; data-font-src=&quot;https://fonts.googleapis.com/css?family=Poppins&quot; style=&quot;font-size: 10px&quot;&gt;¿El&amp;nbsp; Directorio&lt;br&gt;está vacío?&lt;/font&gt;" style="rhombus;whiteSpace=wrap;html=1;rounded=1;shadow=0;glass=0;sketch=0;hachureGap=4;pointerEvents=0;strokeColor=none;fillColor=default;gradientDirection=north;arcSize=8;gradientColor=#FFF2CC;" vertex="1" parent="2HKKLLd31zWiuBAIn60T-1">
          <mxGeometry x="210.25" y="507.5" width="90" height="85" as="geometry" />
        </mxCell>
        <mxCell id="2HKKLLd31zWiuBAIn60T-13" value="&lt;font style=&quot;font-size: 9px&quot;&gt;no&lt;/font&gt;" style="endArrow=blockThin;html=1;startSize=14;endSize=14;sourcePerimeterSpacing=8;targetPerimeterSpacing=8;strokeColor=#B3B3B3;rounded=1;strokeWidth=1;endFill=1;opacity=60;fontFamily=Poppins;fontSource=https%3A%2F%2Ffonts.googleapis.com%2Fcss%3Ffamily%3DPoppins;verticalAlign=middle;exitX=1;exitY=0.5;exitDx=0;exitDy=0;" edge="1" parent="2HKKLLd31zWiuBAIn60T-1" source="2HKKLLd31zWiuBAIn60T-12">
          <mxGeometry x="-0.1999" width="50" height="50" relative="1" as="geometry">
            <mxPoint x="320.24" y="542.5" as="sourcePoint" />
            <mxPoint x="360" y="550" as="targetPoint" />
            <mxPoint as="offset" />
            <Array as="points" />
          </mxGeometry>
        </mxCell>
        <mxCell id="2HKKLLd31zWiuBAIn60T-14" value="" style="endArrow=blockThin;html=1;startSize=14;endSize=14;sourcePerimeterSpacing=8;targetPerimeterSpacing=8;strokeColor=#B3B3B3;rounded=1;strokeWidth=1;endFill=1;opacity=60;" edge="1" parent="2HKKLLd31zWiuBAIn60T-1">
          <mxGeometry width="50" height="50" relative="1" as="geometry">
            <mxPoint x="416.0499999999997" y="150" as="sourcePoint" />
            <mxPoint x="416.0499999999997" y="190" as="targetPoint" />
          </mxGeometry>
        </mxCell>
        <mxCell id="2HKKLLd31zWiuBAIn60T-15" value="" style="endArrow=blockThin;html=1;startSize=14;endSize=14;sourcePerimeterSpacing=8;targetPerimeterSpacing=8;strokeColor=#B3B3B3;rounded=1;strokeWidth=1;endFill=1;opacity=60;" edge="1" parent="2HKKLLd31zWiuBAIn60T-1">
          <mxGeometry width="50" height="50" relative="1" as="geometry">
            <mxPoint x="417.08000000000015" y="240" as="sourcePoint" />
            <mxPoint x="417.08000000000015" y="280" as="targetPoint" />
          </mxGeometry>
        </mxCell>
        <mxCell id="2HKKLLd31zWiuBAIn60T-16" value="&lt;font style=&quot;font-size: 9px&quot;&gt;no&lt;/font&gt;" style="endArrow=blockThin;html=1;startSize=14;endSize=14;sourcePerimeterSpacing=8;targetPerimeterSpacing=8;strokeColor=#B3B3B3;rounded=1;strokeWidth=1;endFill=1;opacity=60;fontFamily=Poppins;fontSource=https%3A%2F%2Ffonts.googleapis.com%2Fcss%3Ffamily%3DPoppins;verticalAlign=middle;labelPosition=center;verticalLabelPosition=middle;align=center;entryX=0;entryY=0.5;entryDx=0;entryDy=0;" edge="1" parent="2HKKLLd31zWiuBAIn60T-1" target="2HKKLLd31zWiuBAIn60T-17">
          <mxGeometry x="-0.1657" width="50" height="50" relative="1" as="geometry">
            <mxPoint x="462.73999999999955" y="320" as="sourcePoint" />
            <mxPoint x="600" y="320" as="targetPoint" />
            <mxPoint as="offset" />
            <Array as="points" />
          </mxGeometry>
        </mxCell>
        <mxCell id="2HKKLLd31zWiuBAIn60T-17" value="&lt;font style=&quot;font-size: 10px&quot;&gt;La ruta ingresada &lt;br&gt;no existe&lt;/font&gt;" style="rounded=1;whiteSpace=wrap;html=1;shadow=0;glass=0;sketch=0;hachureGap=4;pointerEvents=0;fontFamily=Poppins;fontSource=https%3A%2F%2Ffonts.googleapis.com%2Fcss%3Ffamily%3DPoppins;strokeColor=none;fillColor=#FFFFFF;gradientDirection=north;gradientColor=#99CCFF;" vertex="1" parent="2HKKLLd31zWiuBAIn60T-1">
          <mxGeometry x="680" y="300" width="120" height="40" as="geometry" />
        </mxCell>
        <mxCell id="2HKKLLd31zWiuBAIn60T-18" value="&lt;font style=&quot;font-size: 14px&quot; color=&quot;#fcfcfc&quot; face=&quot;Poppins&quot; data-font-src=&quot;https://fonts.googleapis.com/css?family=Poppins&quot;&gt;&lt;b&gt;END&lt;/b&gt;&lt;/font&gt;" style="rounded=1;whiteSpace=wrap;html=1;hachureGap=4;pointerEvents=0;fillColor=#4EC2CF;strokeColor=none;shadow=1;glass=0;sketch=0;gradientDirection=north;gradientColor=#89E3D2;" vertex="1" parent="2HKKLLd31zWiuBAIn60T-1">
          <mxGeometry x="348.25" y="1200" width="140" height="30" as="geometry" />
        </mxCell>
        <mxCell id="2HKKLLd31zWiuBAIn60T-19" value="&lt;font face=&quot;Poppins&quot; style=&quot;font-size: 9px&quot;&gt;&lt;span style=&quot;font-size: 10px&quot;&gt;Filtrar array&lt;br&gt;&amp;nbsp;para solo obtener&lt;br&gt;&amp;nbsp;archivos MD&lt;/span&gt;&lt;/font&gt;" style="shape=parallelogram;perimeter=parallelogramPerimeter;whiteSpace=wrap;html=1;fixedSize=1;shadow=0;glass=1;sketch=0;hachureGap=4;pointerEvents=0;fillColor=#CCFFE6;strokeColor=none;rounded=1;arcSize=21;align=center;gradientColor=#ffffff;" vertex="1" parent="2HKKLLd31zWiuBAIn60T-1">
          <mxGeometry x="348.25" y="520" width="141.75" height="60" as="geometry" />
        </mxCell>
        <mxCell id="2HKKLLd31zWiuBAIn60T-20" value="&lt;font style=&quot;font-size: 9px&quot;&gt;no&lt;/font&gt;" style="endArrow=blockThin;html=1;startSize=10;endSize=14;sourcePerimeterSpacing=7;targetPerimeterSpacing=7;strokeColor=#B3B3B3;rounded=1;strokeWidth=1;endFill=1;opacity=60;fontFamily=Poppins;fontSource=https%3A%2F%2Ffonts.googleapis.com%2Fcss%3Ffamily%3DPoppins;verticalAlign=middle;labelPosition=center;verticalLabelPosition=middle;align=center;" edge="1" parent="2HKKLLd31zWiuBAIn60T-1">
          <mxGeometry x="-0.2157" width="50" height="50" relative="1" as="geometry">
            <mxPoint x="419.0000000000002" y="469" as="sourcePoint" />
            <mxPoint x="418.5499999999997" y="520" as="targetPoint" />
            <mxPoint as="offset" />
          </mxGeometry>
        </mxCell>
        <mxCell id="2HKKLLd31zWiuBAIn60T-21" value="&lt;font face=&quot;Poppins&quot; data-font-src=&quot;https://fonts.googleapis.com/css?family=Poppins&quot; style=&quot;font-size: 9px&quot;&gt;&lt;font&gt;¿Hay &lt;br&gt;archivos MD&amp;nbsp;&lt;/font&gt;&lt;font&gt;?&lt;/font&gt;&lt;/font&gt;" style="rhombus;whiteSpace=wrap;html=1;rounded=1;shadow=0;glass=0;sketch=0;hachureGap=4;pointerEvents=0;strokeColor=none;fillColor=default;gradientDirection=north;arcSize=8;gradientColor=#FFF2CC;" vertex="1" parent="2HKKLLd31zWiuBAIn60T-1">
          <mxGeometry x="374.5" y="620" width="87.5" height="70" as="geometry" />
        </mxCell>
        <mxCell id="2HKKLLd31zWiuBAIn60T-22" value="" style="endArrow=blockThin;html=1;startSize=14;endSize=14;sourcePerimeterSpacing=8;targetPerimeterSpacing=8;strokeColor=#B3B3B3;rounded=1;strokeWidth=1;endFill=1;opacity=60;" edge="1" parent="2HKKLLd31zWiuBAIn60T-1">
          <mxGeometry width="50" height="50" relative="1" as="geometry">
            <mxPoint x="418.5499999999997" y="580" as="sourcePoint" />
            <mxPoint x="418.5499999999997" y="620" as="targetPoint" />
          </mxGeometry>
        </mxCell>
        <mxCell id="2HKKLLd31zWiuBAIn60T-23" value="&lt;font style=&quot;font-size: 9px&quot;&gt;sí&lt;/font&gt;" style="endArrow=blockThin;html=1;startSize=10;endSize=14;sourcePerimeterSpacing=7;targetPerimeterSpacing=7;strokeColor=#B3B3B3;rounded=1;strokeWidth=1;endFill=1;opacity=60;fontFamily=Poppins;fontSource=https%3A%2F%2Ffonts.googleapis.com%2Fcss%3Ffamily%3DPoppins;verticalAlign=middle;labelPosition=center;verticalLabelPosition=middle;align=center;" edge="1" parent="2HKKLLd31zWiuBAIn60T-1">
          <mxGeometry x="-0.2157" width="50" height="50" relative="1" as="geometry">
            <mxPoint x="418.78999999999974" y="690" as="sourcePoint" />
            <mxPoint x="418.5499999999997" y="741.0000000000002" as="targetPoint" />
            <mxPoint as="offset" />
          </mxGeometry>
        </mxCell>
        <mxCell id="2HKKLLd31zWiuBAIn60T-24" value="&lt;font face=&quot;Poppins&quot; data-font-src=&quot;https://fonts.googleapis.com/css?family=Poppins&quot; style=&quot;font-size: 9px&quot;&gt;&lt;font&gt;¿Tiene URLs&amp;nbsp;&lt;/font&gt;&lt;font&gt;?&lt;/font&gt;&lt;/font&gt;" style="rhombus;whiteSpace=wrap;html=1;rounded=1;shadow=0;glass=0;sketch=0;hachureGap=4;pointerEvents=0;strokeColor=none;fillColor=default;gradientDirection=north;arcSize=8;gradientColor=#FFF2CC;" vertex="1" parent="2HKKLLd31zWiuBAIn60T-1">
          <mxGeometry x="375" y="740" width="87.5" height="70" as="geometry" />
        </mxCell>
        <mxCell id="2HKKLLd31zWiuBAIn60T-25" value="&lt;font face=&quot;Poppins&quot; data-font-src=&quot;https://fonts.googleapis.com/css?family=Poppins&quot; style=&quot;font-size: 9px&quot;&gt;&lt;font&gt;¿validate = TRUE&amp;nbsp;&lt;/font&gt;&lt;font&gt;?&lt;/font&gt;&lt;/font&gt;" style="rhombus;whiteSpace=wrap;html=1;rounded=1;shadow=0;glass=0;sketch=0;hachureGap=4;pointerEvents=0;strokeColor=none;fillColor=default;gradientDirection=north;arcSize=8;gradientColor=#FFF2CC;" vertex="1" parent="2HKKLLd31zWiuBAIn60T-1">
          <mxGeometry x="374.5" y="860" width="87.5" height="70" as="geometry" />
        </mxCell>
        <mxCell id="2HKKLLd31zWiuBAIn60T-26" value="&lt;font style=&quot;font-size: 9px&quot;&gt;sí&lt;/font&gt;" style="endArrow=blockThin;html=1;startSize=10;endSize=14;sourcePerimeterSpacing=7;targetPerimeterSpacing=7;strokeColor=#B3B3B3;rounded=1;strokeWidth=1;endFill=1;opacity=60;fontFamily=Poppins;fontSource=https%3A%2F%2Ffonts.googleapis.com%2Fcss%3Ffamily%3DPoppins;verticalAlign=middle;labelPosition=center;verticalLabelPosition=middle;align=center;" edge="1" parent="2HKKLLd31zWiuBAIn60T-1">
          <mxGeometry x="-0.2157" width="50" height="50" relative="1" as="geometry">
            <mxPoint x="418.8699999999999" y="810" as="sourcePoint" />
            <mxPoint x="418.6300000000001" y="861" as="targetPoint" />
            <mxPoint as="offset" />
          </mxGeometry>
        </mxCell>
        <mxCell id="2HKKLLd31zWiuBAIn60T-27" value="&lt;font face=&quot;Poppins&quot;&gt;&lt;span style=&quot;font-size: 10px&quot;&gt;HTTP&lt;br&gt;&amp;nbsp;REQUEST&lt;/span&gt;&lt;/font&gt;" style="shape=parallelogram;perimeter=parallelogramPerimeter;whiteSpace=wrap;html=1;fixedSize=1;shadow=0;glass=1;sketch=0;hachureGap=4;pointerEvents=0;fillColor=#CCFFE6;strokeColor=none;rounded=1;arcSize=22;align=center;gradientColor=#ffffff;" vertex="1" parent="2HKKLLd31zWiuBAIn60T-1">
          <mxGeometry x="353.25" y="980" width="130" height="50" as="geometry" />
        </mxCell>
        <mxCell id="2HKKLLd31zWiuBAIn60T-28" value="&lt;font face=&quot;Poppins&quot; style=&quot;font-size: 9px&quot;&gt;Retornar un arreglo de&lt;br&gt;&amp;nbsp;objetos que contienen :&amp;nbsp;&lt;br&gt;href, text, file, status, ok/fail&lt;br&gt;&lt;/font&gt;" style="shape=parallelogram;perimeter=parallelogramPerimeter;whiteSpace=wrap;html=1;fixedSize=1;shadow=0;glass=1;sketch=0;hachureGap=4;pointerEvents=0;fillColor=#CCFFE6;strokeColor=none;rounded=1;arcSize=22;align=center;gradientColor=#ffffff;" vertex="1" parent="2HKKLLd31zWiuBAIn60T-1">
          <mxGeometry x="337.75" y="1070" width="150" height="70" as="geometry" />
        </mxCell>
        <mxCell id="2HKKLLd31zWiuBAIn60T-29" value="&lt;font style=&quot;font-size: 9px&quot;&gt;sí&lt;/font&gt;" style="endArrow=blockThin;html=1;startSize=10;endSize=14;sourcePerimeterSpacing=7;targetPerimeterSpacing=7;strokeColor=#B3B3B3;rounded=1;strokeWidth=1;endFill=1;opacity=60;fontFamily=Poppins;fontSource=https%3A%2F%2Ffonts.googleapis.com%2Fcss%3Ffamily%3DPoppins;verticalAlign=middle;labelPosition=center;verticalLabelPosition=middle;align=center;" edge="1" parent="2HKKLLd31zWiuBAIn60T-1">
          <mxGeometry x="-0.2157" width="50" height="50" relative="1" as="geometry">
            <mxPoint x="418.3699999999999" y="929" as="sourcePoint" />
            <mxPoint x="418.13000000000034" y="980" as="targetPoint" />
            <mxPoint as="offset" />
          </mxGeometry>
        </mxCell>
        <mxCell id="2HKKLLd31zWiuBAIn60T-30" value="" style="endArrow=blockThin;html=1;startSize=14;endSize=14;sourcePerimeterSpacing=8;targetPerimeterSpacing=8;strokeColor=#B3B3B3;rounded=1;strokeWidth=1;endFill=1;opacity=60;" edge="1" parent="2HKKLLd31zWiuBAIn60T-1">
          <mxGeometry width="50" height="50" relative="1" as="geometry">
            <mxPoint x="418.1500000000001" y="1030" as="sourcePoint" />
            <mxPoint x="418.1500000000001" y="1070" as="targetPoint" />
          </mxGeometry>
        </mxCell>
        <mxCell id="2HKKLLd31zWiuBAIn60T-31" value="&lt;font style=&quot;font-size: 10px&quot;&gt;No se cuenta con archivos MD&lt;/font&gt;" style="rounded=1;whiteSpace=wrap;html=1;shadow=0;glass=0;sketch=0;hachureGap=4;pointerEvents=0;fontFamily=Poppins;fontSource=https%3A%2F%2Ffonts.googleapis.com%2Fcss%3Ffamily%3DPoppins;strokeColor=none;fillColor=#FFFFFF;gradientDirection=north;gradientColor=#99CCFF;" vertex="1" parent="2HKKLLd31zWiuBAIn60T-1">
          <mxGeometry x="550" y="635" width="100" height="40" as="geometry" />
        </mxCell>
        <mxCell id="2HKKLLd31zWiuBAIn60T-32" value="&lt;font style=&quot;font-size: 10px&quot;&gt;No existen URLs&lt;/font&gt;" style="rounded=1;whiteSpace=wrap;html=1;shadow=0;glass=0;sketch=0;hachureGap=4;pointerEvents=0;fontFamily=Poppins;fontSource=https%3A%2F%2Ffonts.googleapis.com%2Fcss%3Ffamily%3DPoppins;strokeColor=none;fillColor=#FFFFFF;gradientDirection=north;gradientColor=#99CCFF;" vertex="1" parent="2HKKLLd31zWiuBAIn60T-1">
          <mxGeometry x="548" y="755" width="100" height="40" as="geometry" />
        </mxCell>
        <mxCell id="2HKKLLd31zWiuBAIn60T-33" value="&lt;span style=&quot;font-size: 9px&quot;&gt;Retornar un arreglo de&amp;nbsp;&lt;/span&gt;&lt;span style=&quot;font-size: 9px&quot;&gt;objetos que contienen :&amp;nbsp;&lt;/span&gt;&lt;span style=&quot;font-size: 9px&quot;&gt;href, text, file,&lt;/span&gt;" style="rounded=1;whiteSpace=wrap;html=1;shadow=0;glass=0;sketch=0;hachureGap=4;pointerEvents=0;fontFamily=Poppins;fontSource=https%3A%2F%2Ffonts.googleapis.com%2Fcss%3Ffamily%3DPoppins;strokeColor=none;fillColor=#FFFFFF;gradientDirection=north;gradientColor=#99CCFF;" vertex="1" parent="2HKKLLd31zWiuBAIn60T-1">
          <mxGeometry x="538" y="866" width="120" height="55" as="geometry" />
        </mxCell>
        <mxCell id="2HKKLLd31zWiuBAIn60T-34" value="&lt;font style=&quot;font-size: 9px&quot;&gt;no&lt;/font&gt;" style="endArrow=blockThin;html=1;startSize=14;endSize=14;sourcePerimeterSpacing=8;targetPerimeterSpacing=8;strokeColor=#B3B3B3;rounded=1;strokeWidth=1;endFill=1;opacity=60;fontFamily=Poppins;fontSource=https%3A%2F%2Ffonts.googleapis.com%2Fcss%3Ffamily%3DPoppins;verticalAlign=middle;exitX=0.98;exitY=0.499;exitDx=0;exitDy=0;exitPerimeter=0;" edge="1" parent="2HKKLLd31zWiuBAIn60T-1" source="2HKKLLd31zWiuBAIn60T-21">
          <mxGeometry x="-0.1999" width="50" height="50" relative="1" as="geometry">
            <mxPoint x="462" y="654.8" as="sourcePoint" />
            <mxPoint x="530" y="654" as="targetPoint" />
            <mxPoint as="offset" />
            <Array as="points" />
          </mxGeometry>
        </mxCell>
        <mxCell id="2HKKLLd31zWiuBAIn60T-35" value="&lt;font style=&quot;font-size: 9px&quot;&gt;no&lt;/font&gt;" style="endArrow=blockThin;html=1;startSize=14;endSize=14;sourcePerimeterSpacing=8;targetPerimeterSpacing=8;strokeColor=#B3B3B3;rounded=1;strokeWidth=1;endFill=1;opacity=60;fontFamily=Poppins;fontSource=https%3A%2F%2Ffonts.googleapis.com%2Fcss%3Ffamily%3DPoppins;verticalAlign=middle;exitX=1;exitY=0.5;exitDx=0;exitDy=0;entryX=0.006;entryY=0.532;entryDx=0;entryDy=0;entryPerimeter=0;" edge="1" parent="2HKKLLd31zWiuBAIn60T-1" target="2HKKLLd31zWiuBAIn60T-32">
          <mxGeometry x="-0.1999" width="50" height="50" relative="1" as="geometry">
            <mxPoint x="462" y="774.8000000000002" as="sourcePoint" />
            <mxPoint x="521.75" y="774.8" as="targetPoint" />
            <mxPoint as="offset" />
            <Array as="points" />
          </mxGeometry>
        </mxCell>
        <mxCell id="2HKKLLd31zWiuBAIn60T-36" value="" style="endArrow=blockThin;html=1;fontFamily=Poppins;fontSource=https%3A%2F%2Ffonts.googleapis.com%2Fcss%3Ffamily%3DPoppins;startSize=10;endSize=14;sourcePerimeterSpacing=7;targetPerimeterSpacing=7;strokeColor=#B3B3B3;strokeWidth=1;align=right;verticalAlign=middle;opacity=60;endFill=1;" edge="1" parent="2HKKLLd31zWiuBAIn60T-1">
          <mxGeometry width="50" height="50" relative="1" as="geometry">
            <mxPoint x="650" y="895" as="sourcePoint" />
            <mxPoint x="740" y="895" as="targetPoint" />
          </mxGeometry>
        </mxCell>
        <mxCell id="2HKKLLd31zWiuBAIn60T-37" value="" style="endArrow=blockThin;html=1;fontFamily=Poppins;fontSource=https%3A%2F%2Ffonts.googleapis.com%2Fcss%3Ffamily%3DPoppins;startSize=10;endSize=14;sourcePerimeterSpacing=7;targetPerimeterSpacing=7;strokeColor=#B3B3B3;strokeWidth=1;align=right;verticalAlign=middle;opacity=60;endFill=1;" edge="1" parent="2HKKLLd31zWiuBAIn60T-1">
          <mxGeometry width="50" height="50" relative="1" as="geometry">
            <mxPoint x="630" y="774.8400000000004" as="sourcePoint" />
            <mxPoint x="740" y="775" as="targetPoint" />
          </mxGeometry>
        </mxCell>
        <mxCell id="2HKKLLd31zWiuBAIn60T-38" value="" style="endArrow=none;html=1;fontFamily=Poppins;fontSource=https%3A%2F%2Ffonts.googleapis.com%2Fcss%3Ffamily%3DPoppins;startSize=10;endSize=14;sourcePerimeterSpacing=7;targetPerimeterSpacing=7;strokeColor=#B3B3B3;strokeWidth=1;align=right;verticalAlign=middle;opacity=60;" edge="1" parent="2HKKLLd31zWiuBAIn60T-1">
          <mxGeometry width="50" height="50" relative="1" as="geometry">
            <mxPoint x="90" y="1210" as="sourcePoint" />
            <mxPoint x="89.95000000000005" y="550" as="targetPoint" />
          </mxGeometry>
        </mxCell>
        <mxCell id="2HKKLLd31zWiuBAIn60T-39" value="" style="endArrow=blockThin;html=1;fontFamily=Poppins;fontSource=https%3A%2F%2Ffonts.googleapis.com%2Fcss%3Ffamily%3DPoppins;startSize=10;endSize=14;sourcePerimeterSpacing=7;targetPerimeterSpacing=7;strokeColor=#B3B3B3;strokeWidth=1;align=right;verticalAlign=middle;opacity=60;entryX=1.002;entryY=0.597;entryDx=0;entryDy=0;entryPerimeter=0;endFill=1;" edge="1" parent="2HKKLLd31zWiuBAIn60T-1" target="2HKKLLd31zWiuBAIn60T-18">
          <mxGeometry width="50" height="50" relative="1" as="geometry">
            <mxPoint x="740" y="1210" as="sourcePoint" />
            <mxPoint x="570" y="1510" as="targetPoint" />
            <Array as="points">
              <mxPoint x="740" y="1220" />
            </Array>
          </mxGeometry>
        </mxCell>
        <mxCell id="2HKKLLd31zWiuBAIn60T-40" value="&lt;font style=&quot;font-size: 10px&quot;&gt;no se puede continuar&lt;/font&gt;" style="rounded=1;whiteSpace=wrap;html=1;shadow=0;glass=0;sketch=0;hachureGap=4;pointerEvents=0;fontFamily=Poppins;fontSource=https%3A%2F%2Ffonts.googleapis.com%2Fcss%3Ffamily%3DPoppins;strokeColor=none;fillColor=#FFFFFF;gradientDirection=north;gradientColor=#99CCFF;" vertex="1" parent="2HKKLLd31zWiuBAIn60T-1">
          <mxGeometry x="40" y="530" width="100" height="40" as="geometry" />
        </mxCell>
        <mxCell id="2HKKLLd31zWiuBAIn60T-41" value="" style="endArrow=none;html=1;fontFamily=Poppins;fontSource=https%3A%2F%2Ffonts.googleapis.com%2Fcss%3Ffamily%3DPoppins;startSize=10;endSize=14;sourcePerimeterSpacing=7;targetPerimeterSpacing=7;strokeColor=#B3B3B3;strokeWidth=1;align=right;verticalAlign=middle;opacity=60;" edge="1" parent="2HKKLLd31zWiuBAIn60T-1">
          <mxGeometry width="50" height="50" relative="1" as="geometry">
            <mxPoint x="740" y="1210" as="sourcePoint" />
            <mxPoint x="740" y="340" as="targetPoint" />
          </mxGeometry>
        </mxCell>
        <mxCell id="2HKKLLd31zWiuBAIn60T-42" value="&lt;font style=&quot;font-size: 9px&quot;&gt;sí&lt;/font&gt;" style="endArrow=blockThin;html=1;startSize=14;endSize=14;sourcePerimeterSpacing=8;targetPerimeterSpacing=8;strokeColor=#B3B3B3;rounded=1;strokeWidth=1;endFill=1;opacity=60;fontFamily=Poppins;fontSource=https%3A%2F%2Ffonts.googleapis.com%2Fcss%3Ffamily%3DPoppins;verticalAlign=middle;entryX=1;entryY=0.5;entryDx=0;entryDy=0;exitX=0.021;exitY=0.518;exitDx=0;exitDy=0;exitPerimeter=0;" edge="1" parent="2HKKLLd31zWiuBAIn60T-1" target="2HKKLLd31zWiuBAIn60T-40">
          <mxGeometry x="-0.2" width="50" height="50" relative="1" as="geometry">
            <mxPoint x="210.25000000000023" y="550.6300000000001" as="sourcePoint" />
            <mxPoint x="144.61" y="549.37" as="targetPoint" />
            <mxPoint as="offset" />
          </mxGeometry>
        </mxCell>
        <mxCell id="2HKKLLd31zWiuBAIn60T-43" value="" style="endArrow=blockThin;html=1;startSize=14;endSize=14;sourcePerimeterSpacing=8;targetPerimeterSpacing=8;strokeColor=#B3B3B3;rounded=1;strokeWidth=1;endFill=1;opacity=60;entryX=0.484;entryY=-0.027;entryDx=0;entryDy=0;entryPerimeter=0;" edge="1" parent="2HKKLLd31zWiuBAIn60T-1" target="2HKKLLd31zWiuBAIn60T-18">
          <mxGeometry width="50" height="50" relative="1" as="geometry">
            <mxPoint x="415.9999999999998" y="1140" as="sourcePoint" />
            <mxPoint x="416" y="1190" as="targetPoint" />
          </mxGeometry>
        </mxCell>
        <mxCell id="2HKKLLd31zWiuBAIn60T-44" value="" style="endArrow=blockThin;html=1;fontFamily=Poppins;fontSource=https%3A%2F%2Ffonts.googleapis.com%2Fcss%3Ffamily%3DPoppins;startSize=10;endSize=14;sourcePerimeterSpacing=7;targetPerimeterSpacing=7;strokeColor=#B3B3B3;strokeWidth=1;align=right;verticalAlign=middle;opacity=60;entryX=0;entryY=0.61;entryDx=0;entryDy=0;entryPerimeter=0;endFill=1;" edge="1" parent="2HKKLLd31zWiuBAIn60T-1" target="2HKKLLd31zWiuBAIn60T-18">
          <mxGeometry width="50" height="50" relative="1" as="geometry">
            <mxPoint x="90" y="1210" as="sourcePoint" />
            <mxPoint x="60" y="1217.9099999999999" as="targetPoint" />
            <Array as="points">
              <mxPoint x="90" y="1218" />
            </Array>
          </mxGeometry>
        </mxCell>
        <mxCell id="2HKKLLd31zWiuBAIn60T-45" value="" style="endArrow=blockThin;html=1;fontFamily=Poppins;fontSource=https%3A%2F%2Ffonts.googleapis.com%2Fcss%3Ffamily%3DPoppins;startSize=10;endSize=14;sourcePerimeterSpacing=7;targetPerimeterSpacing=7;strokeColor=#B3B3B3;strokeWidth=1;align=right;verticalAlign=middle;opacity=60;endFill=1;" edge="1" parent="2HKKLLd31zWiuBAIn60T-1">
          <mxGeometry width="50" height="50" relative="1" as="geometry">
            <mxPoint x="630" y="654.7600000000002" as="sourcePoint" />
            <mxPoint x="740" y="654.9199999999998" as="targetPoint" />
          </mxGeometry>
        </mxCell>
        <mxCell id="2HKKLLd31zWiuBAIn60T-46" value="&lt;font style=&quot;font-size: 9px&quot;&gt;no&lt;/font&gt;" style="endArrow=blockThin;html=1;startSize=14;endSize=14;sourcePerimeterSpacing=8;targetPerimeterSpacing=8;strokeColor=#B3B3B3;rounded=1;strokeWidth=1;endFill=1;opacity=60;fontFamily=Poppins;fontSource=https%3A%2F%2Ffonts.googleapis.com%2Fcss%3Ffamily%3DPoppins;verticalAlign=middle;exitX=1;exitY=0.5;exitDx=0;exitDy=0;entryX=0.006;entryY=0.532;entryDx=0;entryDy=0;entryPerimeter=0;" edge="1" parent="2HKKLLd31zWiuBAIn60T-1">
          <mxGeometry x="-0.1999" width="50" height="50" relative="1" as="geometry">
            <mxPoint x="462.5" y="894.2600000000002" as="sourcePoint" />
            <mxPoint x="531.1000000000004" y="895.7399999999998" as="targetPoint" />
            <mxPoint as="offset" />
            <Array as="points" />
          </mxGeometry>
        </mxCell>
        <mxCell id="2HKKLLd31zWiuBAIn60T-47" value="&lt;font face=&quot;Poppins&quot; style=&quot;font-size: 9px&quot;&gt;Importar módulo MdLinks&lt;br&gt;(path, options)&lt;br&gt;&lt;/font&gt;" style="shape=parallelogram;perimeter=parallelogramPerimeter;whiteSpace=wrap;html=1;fixedSize=1;shadow=0;glass=1;sketch=0;hachureGap=4;pointerEvents=0;fillColor=#CCFFE6;strokeColor=none;rounded=1;arcSize=22;align=center;gradientColor=#ffffff;" vertex="1" parent="2HKKLLd31zWiuBAIn60T-1">
          <mxGeometry x="340" y="3" width="150" height="70" as="geometry" />
        </mxCell>
        <mxCell id="2HKKLLd31zWiuBAIn60T-48" value="" style="endArrow=blockThin;html=1;startSize=14;endSize=14;sourcePerimeterSpacing=8;targetPerimeterSpacing=8;strokeColor=#B3B3B3;rounded=1;strokeWidth=1;endFill=1;opacity=60;" edge="1" parent="2HKKLLd31zWiuBAIn60T-1">
          <mxGeometry width="50" height="50" relative="1" as="geometry">
            <mxPoint x="416.1099999999999" y="-37" as="sourcePoint" />
            <mxPoint x="416.1099999999999" y="3" as="targetPoint" />
          </mxGeometry>
        </mxCell>
      </root>
    </mxGraphModel>
  </diagram>
</mxfile>
